#!OML:ASF C:\Vicon Data\Big\jianyuan-13\jianyuan\Session 1\Capture.male.ASF
:FULLY-SPECIFIED
:DEGREES
112
root -8.646306 17.327193 -12.518952 4.901181 -10.885745 -1.496116
lowerback -12.122969 6.606963 1.710784 
upperback 0.769600 8.679682 -1.609240 
thorax 8.095987 4.323367 -0.988512 
lowerneck -3.780596 -3.280810 3.541164 
upperneck -0.421126 -4.505728 -2.279426 
head 0.365247 -2.274082 -1.354374 
rclavicle 0.000000 0.000000 
rhumerus -11.141120 11.606381 -90.552834 
rradius 58.230368 
rwrist 12.322966 
rhand -16.472155 -17.739501 
rfingers 0.000000 
rthumb 9.744607 -47.494026 
lclavicle 0.000000 0.000000 
lhumerus -81.395149 36.211232 22.319542 
lradius 22.838721 
lwrist -65.473214 
lhand -19.514748 2.106528 
lfingers 0.000000 
lthumb 6.808291 31.977072 
rfemur 4.691676 6.758822 25.670906 
rtibia 28.157669 
rfoot -22.353774 -0.104616 
rtoes -29.167678 
lfemur -41.465711 -0.254038 -10.043443 
ltibia 19.620430 
lfoot -7.305371 11.143796 
ltoes -41.486423 
113
root -8.628910 17.304979 -12.345148 5.216638 -10.875809 -1.658611
lowerback -12.319422 6.524076 1.761108 
upperback 0.706565 8.553705 -1.561628 
thorax 8.133215 4.261094 -0.973225 
lowerneck -3.930667 -3.147785 3.705529 
upperneck -0.824606 -4.343062 -2.447343 
head 0.263747 -2.197062 -1.431740 
rclavicle 0.000000 0.000000 
rhumerus -11.648548 11.336166 -90.997972 
rradius 57.465626 
rwrist 12.863165 
rhand -15.966489 -17.573093 
rfingers 0.000000 
rthumb 10.232460 -47.304191 
lclavicle 0.000000 0.000000 
lhumerus -81.449795 36.291870 22.424832 
lradius 22.944885 
lwrist -65.428654 
lhand -19.150958 1.807945 
lfingers 0.000000 
lthumb 7.159423 31.666764 
rfemur 4.896130 6.386274 25.523990 
rtibia 28.293502 
rfoot -21.925231 0.283375 
rtoes -30.063945 
lfemur -40.732223 -0.306781 -10.168376 
ltibia 19.267071 
lfoot -7.997757 11.352438 
ltoes -41.269434 
114
root -8.608280 17.285082 -12.177705 5.667171 -10.847650 -1.889617
lowerback -12.605236 6.500913 1.919116 
upperback 0.618734 8.490593 -1.530734 
thorax 8.215815 4.233254 -1.012374 
lowerneck -4.090306 -3.092505 3.832031 
upperneck -1.231067 -4.283894 -2.570630 
head 0.161406 -2.171485 -1.489998 
rclavicle 0.000000 0.000000 
rhumerus -12.147792 11.023010 -91.448550 
rradius 56.804531 
rwrist 13.107402 
rhand -15.597767 -17.841520 
rfingers 0.000000 
rthumb 10.588092 -47.554814 
lclavicle 0.000000 0.000000 
lhumerus -80.924760 36.252564 23.174256 
lradius 22.871501 
lwrist -64.776007 
lhand -19.043108 1.692161 
lfingers 0.000000 
lthumb 7.263555 31.547497 
rfemur 4.915819 6.508063 25.551483 
rtibia 28.527572 
rfoot -21.531138 0.541986 
rtoes -29.639108 
lfemur -40.179816 -0.246555 -10.241982 
ltibia 18.913364 
lfoot -8.430200 11.559135 
ltoes -40.779791 
115
root -8.589433 17.276490 -12.008699 6.092570 -10.900353 -2.024871
lowerback -12.802679 6.478445 1.939874 
upperback 0.453218 8.450070 -1.523854 
thorax 8.148361 4.212025 -1.013826 
lowerneck -4.199486 -3.026676 3.975444 
upperneck -1.544533 -4.209427 -2.642314 
head 0.080715 -2.137373 -1.535240 
rclavicle 0.000000 0.000000 
rhumerus -12.741526 10.256353 -91.897862 
rradius 55.956746 
rwrist 14.328402 
rhand -14.606462 -17.436667 
rfingers 0.000000 
rthumb 11.544266 -47.098794 
lclavicle 0.000000 0.000000 
lhumerus -80.833280 36.250177 23.302267 
lradius 22.852674 
lwrist -65.317924 
lhand -18.997079 1.869970 
lfingers 0.000000 
lthumb 7.307944 31.723752 
rfemur 4.916000 6.943176 25.446749 
rtibia 28.793474 
rfoot -21.080466 1.135920 
rtoes -26.815776 
lfemur -39.531256 -0.317384 -10.325958 
ltibia 18.569179 
lfoot -9.099708 11.902147 
ltoes -41.188170 
116
root -8.569862 17.262122 -11.831978 6.542121 -10.865085 -2.203989
lowerback -13.092106 6.398103 1.949686 
upperback 0.316272 8.326932 -1.443810 
thorax 8.146545 4.147737 -0.938260 
lowerneck -4.318144 -2.933405 3.893140 
upperneck -1.827919 -4.088586 -2.643429 
head 0.018587 -2.078516 -1.519068 
rclavicle 0.000000 0.000000 
rhumerus -13.304881 9.651225 -92.267250 
rradius 55.097214 
rwrist 15.227980 
rhand -13.823046 -17.221290 
rfingers 0.000000 
rthumb 12.299698 -46.839572 
lclavicle 0.000000 0.000000 
lhumerus -80.997178 36.397966 23.102518 
lradius 22.763594 
lwrist -66.083024 
lhand -18.791485 1.482079 
lfingers 0.000000 
lthumb 7.506429 31.328912 
rfemur 5.056595 7.219077 25.345175 
rtibia 29.019037 
rfoot -20.621249 1.908204 
rtoes -23.696758 
lfemur -38.997730 -0.250545 -10.477530 
ltibia 18.378201 
lfoot -9.616247 12.120681 
ltoes -40.639176 
117
root -8.547128 17.244948 -11.648933 6.941992 -10.823378 -2.279164
lowerback -13.342103 6.358834 1.915410 
upperback 0.182891 8.271026 -1.422670 
thorax 8.132236 4.116123 -0.890813 
lowerneck -4.526449 -2.887418 3.876093 
upperneck -2.016885 -4.035914 -2.676803 
head -0.003635 -2.054270 -1.528131 
rclavicle 0.000000 0.000000 
rhumerus -13.931023 8.986697 -92.616752 
rradius 54.199371 
rwrist 15.796241 
rhand -13.222009 -16.996110 
rfingers 0.000000 
rthumb 12.879121 -46.578716 
lclavicle 0.000000 0.000000 
lhumerus -80.897834 36.518135 23.202381 
lradius 22.766347 
lwrist -66.504575 
lhand -18.627754 1.384267 
lfingers 0.000000 
lthumb 7.664423 31.225363 
rfemur 5.066343 6.589896 25.073352 
rtibia 29.144967 
rfoot -19.835659 1.868423 
rtoes -28.035380 
lfemur -38.500232 -0.194275 -10.763921 
ltibia 18.422614 
lfoot -9.902993 12.154314 
ltoes -41.431617 
118
root -8.528319 17.232331 -11.466006 7.349226 -10.819174 -2.395358
lowerback -13.561397 6.324584 1.868048 
upperback 0.028150 8.224667 -1.408359 
thorax 8.077050 4.089167 -0.846447 
lowerneck -4.738696 -2.841878 3.870117 
upperneck -2.159201 -3.983300 -2.607735 
head -0.008987 -2.029402 -1.507011 
rclavicle 0.000000 0.000000 
rhumerus -14.579066 8.233685 -93.053216 
rradius 53.249178 
rwrist 16.561820 
rhand -12.796329 -17.044112 
rfingers 0.000000 
rthumb 13.289534 -46.600438 
lclavicle 0.000000 0.000000 
lhumerus -80.688286 36.602173 23.375489 
lradius 22.732245 
lwrist -67.026059 
lhand -18.392170 1.311136 
lfingers 0.000000 
lthumb 7.891847 31.143787 
rfemur 5.180069 6.670885 24.903687 
rtibia 29.275202 
rfoot -19.022297 2.253563 
rtoes -27.842834 
lfemur -37.998025 -0.093817 -10.974737 
ltibia 18.495612 
lfoot -10.438044 12.207862 
ltoes -40.344633 
119
root -8.502956 17.218879 -11.274309 7.748878 -10.766610 -2.521343
lowerback -13.829482 6.295460 1.819085 
upperback -0.125379 8.178692 -1.322203 
thorax 8.039200 4.060331 -0.720602 
lowerneck -4.932332 -2.823255 3.752950 
upperneck -2.252775 -3.960190 -2.610274 
head -0.002654 -2.018500 -1.489869 
rclavicle 0.000000 0.000000 
rhumerus -15.301881 7.403527 -93.349311 
rradius 52.231979 
rwrist 16.976108 
rhand -13.076656 -16.982163 
rfingers 0.000000 
rthumb 13.019266 -46.555794 
lclavicle 0.000000 0.000000 
lhumerus -80.598018 36.729267 23.505116 
lradius 22.741831 
lwrist -67.327908 
lhand -18.216905 1.212366 
lfingers 0.000000 
lthumb 8.061003 31.038525 
rfemur 5.266678 6.329722 24.645098 
rtibia 29.472842 
rfoot -18.198693 2.706078 
rtoes -28.862629 
lfemur -37.412114 0.094871 -11.303396 
ltibia 18.512854 
lfoot -10.857965 12.233213 
ltoes -40.485258 
120
root -8.481336 17.205531 -11.074502 8.109671 -10.716223 -2.588898
lowerback -14.114422 6.274649 1.719463 
upperback -0.277494 8.157841 -1.308671 
thorax 8.017226 4.043331 -0.636158 
lowerneck -5.088971 -2.813489 3.742400 
upperneck -2.361137 -3.953009 -2.625162 
head -0.009952 -2.016188 -1.494457 
rclavicle 0.000000 0.000000 
rhumerus -16.068506 6.523446 -93.729243 
rradius 51.113254 
rwrist 17.109849 
rhand -12.991860 -16.838112 
rfingers 0.000000 
rthumb 13.101028 -46.406602 
lclavicle 0.000000 0.000000 
lhumerus -80.375404 36.837234 23.641834 
lradius 22.702324 
lwrist -67.867287 
lhand -18.135004 1.268403 
lfingers 0.000000 
lthumb 8.140039 31.091599 
rfemur 5.408209 6.374491 24.454013 
rtibia 29.739012 
rfoot -17.348376 2.884093 
rtoes -29.369559 
lfemur -36.754388 0.482083 -11.788815 
ltibia 18.570754 
lfoot -11.129094 11.992911 
ltoes -40.789246 
121
root -8.456405 17.198208 -10.872136 8.554062 -10.614880 -2.640439
lowerback -14.486608 6.241651 1.618078 
upperback -0.461169 8.119992 -1.300014 
thorax 8.009620 4.017456 -0.552261 
lowerneck -5.203410 -2.806542 3.710490 
upperneck -2.455603 -3.946752 -2.631732 
head -0.019468 -2.013805 -1.492031 
rclavicle 0.000000 0.000000 
rhumerus -16.866064 5.316445 -93.969987 
rradius 49.860110 
rwrist 18.309511 
rhand -13.161133 -16.255775 
rfingers 0.000000 
rthumb 12.937877 -45.834695 
lclavicle 0.000000 0.000000 
lhumerus -80.213230 36.994901 23.703069 
lradius 22.741468 
lwrist -68.203560 
lhand -17.784948 1.122489 
lfingers 0.000000 
lthumb 8.477888 30.932291 
rfemur 5.495045 6.464531 24.264068 
rtibia 29.849470 
rfoot -16.290751 2.918924 
rtoes -30.211761 
lfemur -36.301709 0.337288 -11.982486 
ltibia 18.859573 
lfoot -11.561086 12.056970 
ltoes -37.903707 
